<?xml version="1.0" encoding="UTF-8"?>
<svg width="24px" height="24px" viewBox="0 0 24 24" version="1.1" xmlns="http://www.w3.org/2000/svg" xmlns:xlink="http://www.w3.org/1999/xlink">
    <!-- Generator: Sketch 51.3 (57544) - http://www.bohemiancoding.com/sketch -->
    <title>KEY2</title>
    <desc>Created with Sketch.</desc>
    <defs></defs>
    <g id="KEY2" stroke="none" stroke-width="1" fill="none" fill-rule="evenodd">
        <path d="M7.52631579,17.0526316 C4.47421586,17.0526316 2,14.5784157 2,11.5263158 C2,8.47421586 4.47421586,6 7.52631579,6 C10.5784157,6 13.0526316,8.47421586 13.0526316,11.5263158 C13.0526316,14.5784157 10.5784157,17.0526316 7.52631579,17.0526316 Z M6.87898162,11.7133234 L5.78570613,13.0175819 L6.61525288,13.5594246 L7.49754538,12.1976253 L8.37504281,13.6073753 L9.20458957,13.0415573 L8.15446969,11.7708643 L9.73684211,11.3393081 L9.42516269,10.4234502 L7.93869163,11.0372189 L8.0633634,9.31578947 L7.03721886,9.31578947 L7.15709556,11.0036534 L5.62746889,10.3754995 L5.31578947,11.2817673 L6.87898162,11.7133234 Z M21.8947368,11.5263158 L21.8947368,13.7368421 L17.4736842,13.7368421 L17.4736842,11.5263158 L9.73684211,11.5263158 L9.73684211,8.21052632 L23,8.21052632 L23,11.5263158 L21.8947368,11.5263158 Z" id="Rectangle-Copy" fill="#FFD700" fill-rule="nonzero"></path>
    </g>
</svg>